{"asset":{"version":"2.0","generator":"THREE.GLTFExporter r175"},"scenes":[{"name":"AuxScene","nodes":[8]}],"scene":0,"nodes":[{"mesh":0},{"mesh":1},{"mesh":2},{"mesh":3},{"matrix":[3.9283710065919304,0,-3.928371006591931,0,0,-5.555555555555555,0,0,3.928371006591931,0,3.9283710065919304,0,0,0,0,1],"children":[0,1,2,3]},{"children":[4]},{"matrix":[1,0,0,0,0,1,0,0,0,0,1,0,-43.17209700123914,49.94832144843207,27.45861344316973,1],"children":[5]},{"children":[6]},{"children":[7]}],"bufferViews":[{"buffer":0,"byteOffset":0,"byteLength":15696,"target":34962,"byteStride":12},{"buffer":0,"byteOffset":15696,"byteLength":10464,"target":34962,"byteStride":8},{"buffer":0,"byteOffset":26160,"byteLength":15696,"target":34962,"byteStride":12},{"buffer":0,"byteOffset":41856,"byteLength":15696,"target":34962,"byteStride":12},{"buffer":0,"byteOffset":57552,"byteLength":10464,"target":34962,"byteStride":8},{"buffer":0,"byteOffset":68016,"byteLength":15696,"target":34962,"byteStride":12},{"buffer":0,"byteOffset":83712,"byteLength":15696,"target":34962,"byteStride":12},{"buffer":0,"byteOffset":99408,"byteLength":10464,"target":34962,"byteStride":8},{"buffer":0,"byteOffset":109872,"byteLength":15696,"target":34962,"byteStride":12},{"buffer":0,"byteOffset":125568,"byteLength":15696,"target":34962,"byteStride":12},{"buffer":0,"byteOffset":141264,"byteLength":10464,"target":34962,"byteStride":8},{"buffer":0,"byteOffset":151728,"byteLength":15696,"target":34962,"byteStride":12}],"buffers":[{"byteLength":167424,"uri":"data:application/octet-stream;base64,"}],"accessors":[{"bufferView":0,"componentType":5126,"count":1308,"max":[16.54890251159668,5.681856155395508,4.599999904632568],"min":[1.4285749197006226,-0.41480064392089844,-0.6000000238418579],"type":"VEC3"},{"bufferView":1,"componentType":5126,"count":1308,"max":[16.54890251159668,5.381103515625],"min":[-0.41480064392089844,-3.5999999046325684],"type":"VEC2"},{"bufferView":2,"componentType":5126,"count":1308,"max":[0.8398327827453613,0.9974983334541321,1],"min":[-0.8398139476776123,-0.9974985122680664,-1],"type":"VEC3"},{"bufferView":3,"componentType":5126,"count":1308,"max":[16.54910659790039,18.396196365356445,4.599999904632568],"min":[1.428775668144226,12.299585342407227,-0.6000000238418579],"type":"VEC3"},{"bufferView":4,"componentType":5126,"count":1308,"max":[18.396196365356445,17.981399536132812],"min":[1.428775668144226,-3.5999999046325684],"type":"VEC2"},{"bufferView":5,"componentType":5126,"count":1308,"max":[0.8398008346557617,0.9974979162216187,1],"min":[-0.8398221135139465,-0.9974998235702515,-1],"type":"VEC3"},{"bufferView":6,"componentType":5126,"count":1308,"max":[18.394201278686523,16.549903869628906,4.599999904632568],"min":[12.29752254486084,1.4295560121536255,-0.6000000238418579],"type":"VEC3"},{"bufferView":7,"componentType":5126,"count":1308,"max":[18.394201278686523,16.135099411010742],"min":[1.4295560121536255,-3.5999999046325684],"type":"VEC2"},{"bufferView":8,"componentType":5126,"count":1308,"max":[0.9974991083145142,0.8398181200027466,1],"min":[-0.997498631477356,-0.8398256897926331,-1],"type":"VEC3"},{"bufferView":9,"componentType":5126,"count":1308,"max":[5.682102203369141,16.551603317260742,4.599999904632568],"min":[-0.4145581126213074,1.4313461780548096,-0.6000000238418579],"type":"VEC3"},{"bufferView":10,"componentType":5126,"count":1308,"max":[16.551603317260742,16.13680076599121],"min":[-0.4145581126213074,-3.5999999046325684],"type":"VEC2"},{"bufferView":11,"componentType":5126,"count":1308,"max":[0.9974982738494873,0.8398331999778748,1],"min":[-0.9974981546401978,-0.8398280143737793,-1],"type":"VEC3"}],"materials":[{"pbrMetallicRoughness":{"baseColorFactor":[0.55201140150344,0.6866853124288864,0.02732089163382382,1],"metallicFactor":1,"roughnessFactor":1},"doubleSided":true}],"meshes":[{"primitives":[{"mode":4,"attributes":{"POSITION":0,"TEXCOORD_0":1,"NORMAL":2},"material":0}]},{"primitives":[{"mode":4,"attributes":{"POSITION":3,"TEXCOORD_0":4,"NORMAL":5},"material":0}]},{"primitives":[{"mode":4,"attributes":{"POSITION":6,"TEXCOORD_0":7,"NORMAL":8},"material":0}]},{"primitives":[{"mode":4,"attributes":{"POSITION":9,"TEXCOORD_0":10,"NORMAL":11},"material":0}]}]}